<?xml version="1.0" standalone="no"?>
<!DOCTYPE svg PUBLIC "-//W3C//DTD SVG 20010904//EN"
 "http://www.w3.org/TR/2001/REC-SVG-20010904/DTD/svg10.dtd">
<svg version="1.0" xmlns="http://www.w3.org/2000/svg"
 width="80.000000pt" height="79.000000pt" viewBox="0 0 80.000000 79.000000"
 preserveAspectRatio="xMidYMid meet">

<g transform="translate(0.000000,79.000000) scale(0.100000,-0.100000)"
fill="#000000" stroke="none">
<path d="M217 784 c-4 -4 -7 -43 -7 -86 l0 -78 -51 0 c-72 0 -117 -24 -140
-74 -15 -34 -19 -67 -19 -190 0 -131 3 -155 20 -192 25 -51 68 -74 138 -74
l51 0 3 -43 3 -42 193 -3 c178 -2 196 -1 243 19 84 37 149 128 149 209 -1 40
-37 110 -77 146 l-36 34 29 57 c23 47 29 70 28 119 -2 76 -31 143 -75 175 -33
23 -41 24 -239 27 -113 2 -209 0 -213 -4z m108 -73 c-8 -26 20 -48 40 -31 9 7
13 21 10 31 -5 16 -1 19 31 19 23 0 41 -6 50 -17 12 -17 13 -17 19 0 10 23 31
22 38 -3 7 -26 37 -26 44 1 5 17 11 20 36 15 84 -17 119 -143 66 -236 -48 -85
-54 -95 -69 -107 -11 -8 -12 -15 -4 -23 8 -8 15 -7 27 4 14 14 20 11 65 -32
63 -60 73 -102 41 -168 -13 -28 -37 -56 -62 -72 -39 -26 -45 -27 -214 -30
l-173 -3 0 335 0 336 31 0 c25 0 29 -3 24 -19z m-120 -356 l0 -200 -24 -3
c-13 -2 -39 -1 -58 3 -55 10 -65 48 -61 222 3 139 4 146 27 164 18 15 36 19
70 17 l46 -3 0 -200z"/>
<path d="M280 680 c0 -5 7 -10 15 -10 8 0 15 5 15 10 0 6 -7 10 -15 10 -8 0
-15 -4 -15 -10z"/>
<path d="M414 675 c-4 -9 -2 -21 4 -27 15 -15 44 -1 40 19 -4 23 -36 29 -44 8z"/>
<path d="M502 664 c4 -21 22 -23 26 -1 2 10 -3 17 -13 17 -10 0 -15 -6 -13
-16z"/>
<path d="M556 658 c-13 -19 -14 -25 -2 -43 26 -40 86 -27 86 19 0 47 -57 63
-84 24z"/>
<path d="M334 625 c-8 -20 4 -35 26 -35 23 0 32 13 24 34 -8 20 -43 21 -50 1z"/>
<path d="M427 623 c-14 -14 -6 -53 13 -63 28 -15 65 22 50 50 -10 19 -49 27
-63 13z"/>
<path d="M535 571 c-7 -12 12 -24 25 -16 11 7 4 25 -10 25 -5 0 -11 -4 -15 -9z"/>
<path d="M630 570 c0 -5 5 -10 10 -10 6 0 10 5 10 10 0 6 -4 10 -10 10 -5 0
-10 -4 -10 -10z"/>
<path d="M294 545 c-4 -9 -2 -21 4 -27 15 -15 44 -1 40 19 -4 23 -36 29 -44 8z"/>
<path d="M360 536 c0 -15 24 -28 34 -19 13 14 5 33 -14 33 -11 0 -20 -6 -20
-14z"/>
<path d="M590 509 c0 -25 33 -22 38 4 2 12 -3 17 -17 17 -15 0 -21 -6 -21 -21z"/>
<path d="M452 504 c-28 -19 -30 -74 -4 -97 25 -22 75 -21 95 1 10 10 17 32 17
49 0 55 -59 81 -108 47z"/>
<path d="M315 470 c-40 -45 20 -105 65 -65 25 23 25 47 2 68 -24 22 -45 21
-67 -3z"/>
<path d="M287 374 c-14 -15 -6 -34 14 -34 14 0 19 5 17 17 -3 18 -20 27 -31
17z"/>
<path d="M520 344 c-11 -12 -10 -18 3 -32 16 -15 18 -15 34 0 13 14 14 20 3
32 -7 9 -16 16 -20 16 -4 0 -13 -7 -20 -16z"/>
<path d="M354 340 c-40 -16 -74 -68 -74 -113 0 -115 122 -174 209 -101 113 95
3 270 -135 214z"/>
<path d="M587 312 c-38 -42 -6 -112 51 -112 16 0 36 8 45 18 22 25 21 75 -1
95 -25 22 -75 21 -95 -1z"/>
<path d="M550 194 c0 -9 7 -14 17 -12 25 5 28 28 4 28 -12 0 -21 -6 -21 -16z"/>
<path d="M632 153 c2 -10 10 -18 18 -18 8 0 16 8 18 18 2 12 -3 17 -18 17 -15
0 -20 -5 -18 -17z"/>
<path d="M546 144 c-31 -30 -13 -67 30 -62 35 4 47 44 18 65 -23 17 -29 16
-48 -3z"/>
<path d="M280 95 c0 -8 7 -15 15 -15 8 0 15 7 15 15 0 8 -7 15 -15 15 -8 0
-15 -7 -15 -15z"/>
<path d="M486 102 c-3 -6 -1 -14 5 -17 15 -10 25 3 12 16 -7 7 -13 7 -17 1z"/>
</g>
</svg>
